<svg xmlns="http://www.w3.org/2000/svg" xmlns:xlink="http://www.w3.org/1999/xlink" width="1522" zoomAndPan="magnify" viewBox="0 0 1141.5 225" height="300" preserveAspectRatio="xMidYMid meet" version="1.0"><defs><g/></defs><g fill="#d9d9d9" fill-opacity="1"><g transform="translate(74.693769, 134.174792)"><g><path d="M 3.34375 -75.046875 L 30.484375 -75.546875 L 29.640625 0 L 67.171875 0 L 66.671875 -76.21875 L 90.78125 -76.71875 L 90.28125 -117.25 L 3.34375 -115.578125 Z M 3.34375 -75.046875 "/></g></g></g><g fill="#d9d9d9" fill-opacity="1"><g transform="translate(167.148916, 134.174792)"><g><path d="M 3.34375 0 L 81.40625 0 L 81.40625 -27.8125 L 33.5 -24.453125 L 33.5 -39.03125 L 71.515625 -40.703125 L 71.515625 -71.6875 L 33.671875 -68.34375 L 33.671875 -82.75 L 81.40625 -84.421875 L 81.40625 -117.25 L 3.34375 -115.578125 Z M 3.34375 0 "/></g></g></g><g fill="#d9d9d9" fill-opacity="1"><g transform="translate(251.899477, 134.174792)"><g><path d="M 48.40625 -11.5625 L 48.078125 -11.5625 C 45.734375 -11.5625 44.046875 -11.890625 42.71875 -12.5625 C 41.375 -13.234375 40.53125 -14.40625 39.859375 -15.75 C 39.1875 -17.078125 38.6875 -18.921875 38.53125 -20.9375 C 38.359375 -22.953125 38.359375 -25.125 38.359375 -27.8125 L 4.359375 -30.484375 C 4.015625 -24.125 5.1875 -18.421875 8.046875 -13.40625 C 9.046875 -11.21875 10.546875 -9.046875 12.5625 -7.03125 C 14.578125 -5.03125 17.078125 -3.1875 20.09375 -1.671875 C 23.109375 0 26.625 1.171875 30.8125 2.171875 C 35 3.1875 40.03125 3.6875 45.734375 3.6875 C 48.078125 3.6875 50.921875 3.6875 54.265625 3.515625 C 57.625 3.34375 61.140625 3.015625 64.828125 2.34375 C 68.5 1.84375 72.03125 1 75.703125 -0.328125 C 79.234375 -1.5 82.40625 -3.1875 85.25 -5.359375 C 88.109375 -7.53125 90.453125 -10.21875 92.125 -13.5625 C 93.796875 -16.75 94.8125 -20.765625 94.8125 -25.453125 C 94.8125 -31.484375 93.96875 -36.1875 92.296875 -39.703125 C 90.625 -43.046875 88.4375 -45.734375 85.421875 -47.40625 C 82.40625 -49.078125 78.71875 -50.25 74.703125 -50.75 C 70.515625 -51.25 66 -51.59375 60.96875 -51.59375 C 58.625 -51.59375 56.453125 -51.421875 54.109375 -51.421875 C 51.75 -51.421875 49.40625 -51.421875 46.90625 -51.421875 C 43.546875 -51.421875 41.03125 -52.265625 39.1875 -54.109375 C 37.359375 -55.9375 36.515625 -58.625 36.515625 -61.96875 C 36.515625 -64.484375 36.34375 -67.171875 36.1875 -69.84375 C 35.84375 -72.53125 35.84375 -75.203125 36.1875 -77.546875 C 36.515625 -79.890625 37.1875 -81.90625 38.359375 -83.578125 C 39.53125 -85.25 41.546875 -86.4375 44.390625 -87.09375 C 45.5625 -87.265625 46.734375 -87.4375 47.734375 -87.609375 C 48.75 -87.765625 49.578125 -87.9375 50.578125 -87.9375 C 54.4375 -87.9375 56.953125 -86.59375 57.953125 -84.25 C 58.953125 -81.734375 59.625 -78.21875 59.625 -73.875 L 59.625 -59.125 L 92.625 -59.125 C 93.296875 -63.484375 93.796875 -68.171875 93.96875 -72.859375 C 93.96875 -76.875 93.46875 -81.234375 92.796875 -86.09375 C 92.125 -90.78125 90.625 -95.46875 88.265625 -100 C 86.765625 -102.671875 84.921875 -105.359375 82.75 -107.703125 C 80.5625 -110.046875 77.890625 -112.21875 74.875 -114.0625 C 71.6875 -115.90625 68 -117.421875 63.984375 -118.421875 C 59.96875 -119.421875 55.28125 -120.09375 49.921875 -120.09375 C 39.859375 -120.09375 31.828125 -118.921875 26.125 -116.75 C 20.265625 -114.5625 15.578125 -111.71875 12.0625 -108.375 C 8.875 -105.359375 6.53125 -102 5.1875 -98.484375 C 3.6875 -94.96875 2.6875 -91.453125 2.171875 -88.109375 C 1.671875 -84.59375 1.5 -81.234375 1.671875 -78.21875 C 1.671875 -75.046875 1.84375 -72.359375 1.84375 -70.34375 C 1.84375 -61.3125 2.84375 -54.4375 5.1875 -49.75 C 7.53125 -44.890625 11.390625 -41.546875 16.921875 -39.53125 C 19.09375 -38.53125 21.109375 -37.859375 23.109375 -37.359375 C 25.125 -36.84375 27.140625 -36.515625 29.484375 -36.1875 C 31.828125 -35.84375 34.34375 -35.671875 37.015625 -35.671875 C 39.703125 -35.671875 42.71875 -35.671875 46.390625 -35.671875 L 61.3125 -35.671875 C 61.640625 -29.984375 61.46875 -25.453125 61.140625 -22.28125 C 60.796875 -18.921875 59.96875 -16.578125 58.953125 -14.90625 C 57.78125 -13.234375 56.28125 -12.390625 54.609375 -12.0625 C 52.9375 -11.71875 50.75 -11.5625 48.40625 -11.5625 Z M 48.40625 -11.5625 "/></g></g></g><g fill="#d9d9d9" fill-opacity="1"><g transform="translate(348.37442, 134.174792)"><g><path d="M 3.34375 -75.046875 L 30.484375 -75.546875 L 29.640625 0 L 67.171875 0 L 66.671875 -76.21875 L 90.78125 -76.71875 L 90.28125 -117.25 L 3.34375 -115.578125 Z M 3.34375 -75.046875 "/></g></g></g><g fill="#d9d9d9" fill-opacity="1"><g transform="translate(440.829567, 134.174792)"><g/></g></g><g fill="#d9d9d9" fill-opacity="1"><g transform="translate(499.451516, 134.174792)"><g><path d="M 3.34375 -115.578125 L 3.34375 0 L 35.34375 0 L 35.34375 -35.671875 L 71.515625 -37.359375 L 71.515625 -68.34375 L 33.671875 -64.984375 L 33.671875 -82.078125 L 81.40625 -83.75 L 81.40625 -117.25 Z M 3.34375 -115.578125 "/></g></g></g><g fill="#d9d9d9" fill-opacity="1"><g transform="translate(584.202093, 134.174792)"><g><path d="M 39.03125 -117.25 L 3.34375 -115.578125 L 3.859375 0 L 34.671875 0 Z M 39.03125 -117.25 "/></g></g></g><g fill="#d9d9d9" fill-opacity="1"><g transform="translate(626.577348, 134.174792)"><g><path d="M 1.671875 0 L 74.703125 0 L 74.703125 -27.8125 L 33.671875 -24.453125 L 38.6875 -117.25 L 1.671875 -115.578125 Z M 1.671875 0 "/></g></g></g><g fill="#d9d9d9" fill-opacity="1"><g transform="translate(702.953347, 134.174792)"><g><path d="M 3.34375 0 L 81.40625 0 L 81.40625 -27.8125 L 33.5 -24.453125 L 33.5 -39.03125 L 71.515625 -40.703125 L 71.515625 -71.6875 L 33.671875 -68.34375 L 33.671875 -82.75 L 81.40625 -84.421875 L 81.40625 -117.25 L 3.34375 -115.578125 Z M 3.34375 0 "/></g></g></g><g fill="#5271ff" fill-opacity="1"><g transform="translate(65.810679, 125.291704)"><g><path d="M 3.34375 -75.046875 L 30.484375 -75.546875 L 29.640625 0 L 67.171875 0 L 66.671875 -76.21875 L 90.78125 -76.71875 L 90.28125 -117.25 L 3.34375 -115.578125 Z M 3.34375 -75.046875 "/></g></g></g><g fill="#5271ff" fill-opacity="1"><g transform="translate(158.265827, 125.291704)"><g><path d="M 3.34375 0 L 81.40625 0 L 81.40625 -27.8125 L 33.5 -24.453125 L 33.5 -39.03125 L 71.515625 -40.703125 L 71.515625 -71.6875 L 33.671875 -68.34375 L 33.671875 -82.75 L 81.40625 -84.421875 L 81.40625 -117.25 L 3.34375 -115.578125 Z M 3.34375 0 "/></g></g></g><g fill="#5271ff" fill-opacity="1"><g transform="translate(243.016387, 125.291704)"><g><path d="M 48.40625 -11.5625 L 48.078125 -11.5625 C 45.734375 -11.5625 44.046875 -11.890625 42.71875 -12.5625 C 41.375 -13.234375 40.53125 -14.40625 39.859375 -15.75 C 39.1875 -17.078125 38.6875 -18.921875 38.53125 -20.9375 C 38.359375 -22.953125 38.359375 -25.125 38.359375 -27.8125 L 4.359375 -30.484375 C 4.015625 -24.125 5.1875 -18.421875 8.046875 -13.40625 C 9.046875 -11.21875 10.546875 -9.046875 12.5625 -7.03125 C 14.578125 -5.03125 17.078125 -3.1875 20.09375 -1.671875 C 23.109375 0 26.625 1.171875 30.8125 2.171875 C 35 3.1875 40.03125 3.6875 45.734375 3.6875 C 48.078125 3.6875 50.921875 3.6875 54.265625 3.515625 C 57.625 3.34375 61.140625 3.015625 64.828125 2.34375 C 68.5 1.84375 72.03125 1 75.703125 -0.328125 C 79.234375 -1.5 82.40625 -3.1875 85.25 -5.359375 C 88.109375 -7.53125 90.453125 -10.21875 92.125 -13.5625 C 93.796875 -16.75 94.8125 -20.765625 94.8125 -25.453125 C 94.8125 -31.484375 93.96875 -36.1875 92.296875 -39.703125 C 90.625 -43.046875 88.4375 -45.734375 85.421875 -47.40625 C 82.40625 -49.078125 78.71875 -50.25 74.703125 -50.75 C 70.515625 -51.25 66 -51.59375 60.96875 -51.59375 C 58.625 -51.59375 56.453125 -51.421875 54.109375 -51.421875 C 51.75 -51.421875 49.40625 -51.421875 46.90625 -51.421875 C 43.546875 -51.421875 41.03125 -52.265625 39.1875 -54.109375 C 37.359375 -55.9375 36.515625 -58.625 36.515625 -61.96875 C 36.515625 -64.484375 36.34375 -67.171875 36.1875 -69.84375 C 35.84375 -72.53125 35.84375 -75.203125 36.1875 -77.546875 C 36.515625 -79.890625 37.1875 -81.90625 38.359375 -83.578125 C 39.53125 -85.25 41.546875 -86.4375 44.390625 -87.09375 C 45.5625 -87.265625 46.734375 -87.4375 47.734375 -87.609375 C 48.75 -87.765625 49.578125 -87.9375 50.578125 -87.9375 C 54.4375 -87.9375 56.953125 -86.59375 57.953125 -84.25 C 58.953125 -81.734375 59.625 -78.21875 59.625 -73.875 L 59.625 -59.125 L 92.625 -59.125 C 93.296875 -63.484375 93.796875 -68.171875 93.96875 -72.859375 C 93.96875 -76.875 93.46875 -81.234375 92.796875 -86.09375 C 92.125 -90.78125 90.625 -95.46875 88.265625 -100 C 86.765625 -102.671875 84.921875 -105.359375 82.75 -107.703125 C 80.5625 -110.046875 77.890625 -112.21875 74.875 -114.0625 C 71.6875 -115.90625 68 -117.421875 63.984375 -118.421875 C 59.96875 -119.421875 55.28125 -120.09375 49.921875 -120.09375 C 39.859375 -120.09375 31.828125 -118.921875 26.125 -116.75 C 20.265625 -114.5625 15.578125 -111.71875 12.0625 -108.375 C 8.875 -105.359375 6.53125 -102 5.1875 -98.484375 C 3.6875 -94.96875 2.6875 -91.453125 2.171875 -88.109375 C 1.671875 -84.59375 1.5 -81.234375 1.671875 -78.21875 C 1.671875 -75.046875 1.84375 -72.359375 1.84375 -70.34375 C 1.84375 -61.3125 2.84375 -54.4375 5.1875 -49.75 C 7.53125 -44.890625 11.390625 -41.546875 16.921875 -39.53125 C 19.09375 -38.53125 21.109375 -37.859375 23.109375 -37.359375 C 25.125 -36.84375 27.140625 -36.515625 29.484375 -36.1875 C 31.828125 -35.84375 34.34375 -35.671875 37.015625 -35.671875 C 39.703125 -35.671875 42.71875 -35.671875 46.390625 -35.671875 L 61.3125 -35.671875 C 61.640625 -29.984375 61.46875 -25.453125 61.140625 -22.28125 C 60.796875 -18.921875 59.96875 -16.578125 58.953125 -14.90625 C 57.78125 -13.234375 56.28125 -12.390625 54.609375 -12.0625 C 52.9375 -11.71875 50.75 -11.5625 48.40625 -11.5625 Z M 48.40625 -11.5625 "/></g></g></g><g fill="#5271ff" fill-opacity="1"><g transform="translate(339.49133, 125.291704)"><g><path d="M 3.34375 -75.046875 L 30.484375 -75.546875 L 29.640625 0 L 67.171875 0 L 66.671875 -76.21875 L 90.78125 -76.71875 L 90.28125 -117.25 L 3.34375 -115.578125 Z M 3.34375 -75.046875 "/></g></g></g><g fill="#5271ff" fill-opacity="1"><g transform="translate(431.946478, 125.291704)"><g/></g></g><g fill="#5271ff" fill-opacity="1"><g transform="translate(490.568426, 125.291704)"><g><path d="M 3.34375 -115.578125 L 3.34375 0 L 35.34375 0 L 35.34375 -35.671875 L 71.515625 -37.359375 L 71.515625 -68.34375 L 33.671875 -64.984375 L 33.671875 -82.078125 L 81.40625 -83.75 L 81.40625 -117.25 Z M 3.34375 -115.578125 "/></g></g></g><g fill="#5271ff" fill-opacity="1"><g transform="translate(575.319004, 125.291704)"><g><path d="M 39.03125 -117.25 L 3.34375 -115.578125 L 3.859375 0 L 34.671875 0 Z M 39.03125 -117.25 "/></g></g></g><g fill="#5271ff" fill-opacity="1"><g transform="translate(617.694258, 125.291704)"><g><path d="M 1.671875 0 L 74.703125 0 L 74.703125 -27.8125 L 33.671875 -24.453125 L 38.6875 -117.25 L 1.671875 -115.578125 Z M 1.671875 0 "/></g></g></g><g fill="#5271ff" fill-opacity="1"><g transform="translate(694.070258, 125.291704)"><g><path d="M 3.34375 0 L 81.40625 0 L 81.40625 -27.8125 L 33.5 -24.453125 L 33.5 -39.03125 L 71.515625 -40.703125 L 71.515625 -71.6875 L 33.671875 -68.34375 L 33.671875 -82.75 L 81.40625 -84.421875 L 81.40625 -117.25 L 3.34375 -115.578125 Z M 3.34375 0 "/></g></g></g><g fill="#5271ff" fill-opacity="1"><g transform="translate(417.765626, 210.931975)"><g><path d="M 2.40625 -75.421875 L 2.296875 0 L 33.0625 2.078125 C 33.5 2.1875 34.046875 2.1875 34.484375 2.1875 L 35.90625 2.1875 C 40.9375 2.1875 45.09375 1.421875 48.390625 -0.328125 C 51.671875 -1.96875 54.296875 -4.046875 56.265625 -6.671875 C 57.46875 -8.203125 58.5625 -10.625 59.4375 -13.796875 C 60.3125 -16.96875 60.96875 -20.578125 61.40625 -24.515625 C 61.84375 -28.46875 62.0625 -32.734375 62.0625 -37.109375 C 62.0625 -41.484375 61.953125 -45.765625 61.515625 -49.8125 C 61.078125 -53.75 60.53125 -57.359375 59.65625 -60.640625 C 58.78125 -63.9375 57.6875 -66.34375 56.375 -68.09375 C 54.84375 -69.953125 53.3125 -71.484375 51.5625 -72.578125 C 49.8125 -73.671875 47.953125 -74.546875 45.984375 -75.203125 C 44 -75.859375 42.03125 -76.296875 39.84375 -76.515625 C 37.65625 -76.734375 35.46875 -76.84375 33.28125 -76.84375 Z M 31.421875 -51.015625 C 31.75 -51.015625 32.078125 -51.125 32.296875 -51.125 L 33.171875 -51.125 C 35.140625 -51.125 36.5625 -50.578125 37.65625 -49.703125 C 38.640625 -48.828125 39.296875 -47.40625 39.734375 -45.65625 C 40.0625 -43.890625 40.171875 -41.59375 40.171875 -38.96875 C 40.171875 -36.34375 40.0625 -33.171875 39.84375 -29.671875 C 39.734375 -27.8125 39.625 -26.046875 39.625 -24.40625 C 39.515625 -22.765625 39.1875 -21.34375 38.75 -20.03125 C 38.3125 -18.71875 37.4375 -17.734375 36.34375 -16.96875 C 35.140625 -16.203125 33.390625 -15.765625 31.203125 -15.65625 L 29.890625 -15.65625 C 28.6875 -15.65625 27.25 -15.65625 25.609375 -15.765625 C 23.96875 -15.765625 22.875 -15.875 22.4375 -16.09375 L 22.4375 -50.25 C 22.65625 -50.359375 23.203125 -50.46875 24.078125 -50.578125 C 24.84375 -50.578125 25.71875 -50.6875 26.703125 -50.6875 C 27.59375 -50.6875 28.578125 -50.796875 29.453125 -50.90625 C 30.328125 -50.90625 30.984375 -51.015625 31.421875 -51.015625 Z M 31.421875 -51.015625 "/></g></g></g><g fill="#5271ff" fill-opacity="1"><g transform="translate(482.677651, 210.931975)"><g><path d="M 2.1875 -46.421875 L 2.515625 -28.578125 C 2.734375 -24.734375 3.0625 -20.90625 3.71875 -17.1875 C 4.265625 -13.46875 5.578125 -10.078125 7.546875 -7.109375 C 9.53125 -4.15625 12.375 -1.75 16.203125 0 C 20.03125 1.859375 25.390625 2.734375 32.1875 2.734375 C 39.40625 2.734375 45.09375 1.859375 49.265625 0 C 53.421875 -1.75 56.484375 -4.15625 58.453125 -7.109375 C 60.421875 -10.078125 61.734375 -13.46875 62.171875 -17.1875 C 62.609375 -20.90625 62.9375 -24.734375 62.9375 -28.6875 L 62.609375 -46.640625 C 62.609375 -50.359375 62.28125 -54.078125 61.84375 -57.796875 C 61.296875 -61.515625 60.09375 -64.8125 58.234375 -67.765625 C 56.375 -70.71875 53.640625 -73.125 50.03125 -74.984375 C 46.421875 -76.84375 41.484375 -77.828125 35.359375 -77.828125 L 32.953125 -77.828125 C 25.609375 -77.5 19.921875 -76.40625 15.875 -74.65625 C 11.71875 -72.796875 8.640625 -70.390625 6.671875 -67.546875 C 4.59375 -64.703125 3.28125 -61.40625 2.84375 -57.796875 C 2.40625 -54.078125 2.1875 -50.359375 2.1875 -46.421875 Z M 32.515625 -50.03125 C 32.84375 -50.03125 33.171875 -50.140625 33.609375 -50.140625 L 34.703125 -50.140625 C 36.5625 -50.140625 37.984375 -49.703125 38.859375 -48.9375 C 39.734375 -48.171875 40.390625 -46.96875 40.828125 -45.203125 C 41.15625 -43.453125 41.265625 -41.15625 41.265625 -38.421875 C 41.15625 -35.578125 41.046875 -32.1875 40.9375 -28.25 C 40.828125 -25.609375 40.71875 -23.203125 40.71875 -21.234375 C 40.609375 -19.265625 40.28125 -17.515625 39.84375 -16.203125 C 39.40625 -14.890625 38.53125 -13.796875 37.4375 -13.140625 C 36.234375 -12.484375 34.484375 -12.046875 32.296875 -11.9375 L 31.3125 -11.9375 C 29.34375 -11.9375 27.8125 -12.265625 26.8125 -13.03125 C 25.71875 -13.6875 24.953125 -14.78125 24.515625 -16.203125 C 23.96875 -17.625 23.640625 -19.375 23.640625 -21.34375 C 23.53125 -23.3125 23.53125 -25.609375 23.53125 -28.25 C 23.53125 -32.40625 23.421875 -35.796875 23.421875 -38.53125 C 23.3125 -41.265625 23.53125 -43.453125 23.96875 -45.09375 C 24.40625 -46.75 25.28125 -47.953125 26.59375 -48.609375 C 27.921875 -49.265625 29.890625 -49.8125 32.515625 -50.03125 Z M 32.515625 -50.03125 "/></g></g></g><g fill="#5271ff" fill-opacity="1"><g transform="translate(547.808597, 210.931975)"><g><path d="M 15.109375 0.875 L 37.546875 0.875 L 44.21875 -31.640625 L 51.234375 0.875 L 73.671875 0.875 L 88.5625 -76.625 L 65.796875 -75.421875 L 62.28125 -22 L 54.953125 -76.625 L 53.53125 -76.515625 L 53.53125 -76.625 L 34.046875 -74.765625 L 27.25 -22 L 22.109375 -76.625 L -1.09375 -74.765625 Z M 15.109375 0.875 "/></g></g></g><g fill="#5271ff" fill-opacity="1"><g transform="translate(632.095702, 210.931975)"><g><path d="M 2.515625 0 L 24.953125 0 L 24.953125 -34.59375 L 36.78125 0 L 56.375 0 L 58.671875 -76.625 L 36.453125 -75.53125 L 36.453125 -36.671875 L 24.953125 -76.625 L 3.5 -75.53125 Z M 2.515625 0 "/></g></g></g><g fill="#5271ff" fill-opacity="1"><g transform="translate(693.504897, 210.931975)"><g><path d="M 1.09375 0 L 48.828125 0 L 48.828125 -18.171875 L 22 -15.984375 L 25.28125 -76.625 L 1.09375 -75.53125 Z M 1.09375 0 "/></g></g></g><g fill="#5271ff" fill-opacity="1"><g transform="translate(743.420378, 210.931975)"><g><path d="M 2.1875 -46.421875 L 2.515625 -28.578125 C 2.734375 -24.734375 3.0625 -20.90625 3.71875 -17.1875 C 4.265625 -13.46875 5.578125 -10.078125 7.546875 -7.109375 C 9.53125 -4.15625 12.375 -1.75 16.203125 0 C 20.03125 1.859375 25.390625 2.734375 32.1875 2.734375 C 39.40625 2.734375 45.09375 1.859375 49.265625 0 C 53.421875 -1.75 56.484375 -4.15625 58.453125 -7.109375 C 60.421875 -10.078125 61.734375 -13.46875 62.171875 -17.1875 C 62.609375 -20.90625 62.9375 -24.734375 62.9375 -28.6875 L 62.609375 -46.640625 C 62.609375 -50.359375 62.28125 -54.078125 61.84375 -57.796875 C 61.296875 -61.515625 60.09375 -64.8125 58.234375 -67.765625 C 56.375 -70.71875 53.640625 -73.125 50.03125 -74.984375 C 46.421875 -76.84375 41.484375 -77.828125 35.359375 -77.828125 L 32.953125 -77.828125 C 25.609375 -77.5 19.921875 -76.40625 15.875 -74.65625 C 11.71875 -72.796875 8.640625 -70.390625 6.671875 -67.546875 C 4.59375 -64.703125 3.28125 -61.40625 2.84375 -57.796875 C 2.40625 -54.078125 2.1875 -50.359375 2.1875 -46.421875 Z M 32.515625 -50.03125 C 32.84375 -50.03125 33.171875 -50.140625 33.609375 -50.140625 L 34.703125 -50.140625 C 36.5625 -50.140625 37.984375 -49.703125 38.859375 -48.9375 C 39.734375 -48.171875 40.390625 -46.96875 40.828125 -45.203125 C 41.15625 -43.453125 41.265625 -41.15625 41.265625 -38.421875 C 41.15625 -35.578125 41.046875 -32.1875 40.9375 -28.25 C 40.828125 -25.609375 40.71875 -23.203125 40.71875 -21.234375 C 40.609375 -19.265625 40.28125 -17.515625 39.84375 -16.203125 C 39.40625 -14.890625 38.53125 -13.796875 37.4375 -13.140625 C 36.234375 -12.484375 34.484375 -12.046875 32.296875 -11.9375 L 31.3125 -11.9375 C 29.34375 -11.9375 27.8125 -12.265625 26.8125 -13.03125 C 25.71875 -13.6875 24.953125 -14.78125 24.515625 -16.203125 C 23.96875 -17.625 23.640625 -19.375 23.640625 -21.34375 C 23.53125 -23.3125 23.53125 -25.609375 23.53125 -28.25 C 23.53125 -32.40625 23.421875 -35.796875 23.421875 -38.53125 C 23.3125 -41.265625 23.53125 -43.453125 23.96875 -45.09375 C 24.40625 -46.75 25.28125 -47.953125 26.59375 -48.609375 C 27.921875 -49.265625 29.890625 -49.8125 32.515625 -50.03125 Z M 32.515625 -50.03125 "/></g></g></g><g fill="#5271ff" fill-opacity="1"><g transform="translate(808.551347, 210.931975)"><g><path d="M 1.09375 0 L 23.53125 0 L 26.15625 -14.5625 L 41.484375 -14.5625 L 44.109375 0 L 66.5625 0 L 49.046875 -76.625 L 18.609375 -75.53125 Z M 39.953125 -25.390625 L 27.703125 -25.390625 L 31.09375 -46.96875 L 36.5625 -46.96875 Z M 39.953125 -25.390625 "/></g></g></g><g fill="#5271ff" fill-opacity="1"><g transform="translate(876.199966, 210.931975)"><g><path d="M 2.40625 -75.421875 L 2.296875 0 L 33.0625 2.078125 C 33.5 2.1875 34.046875 2.1875 34.484375 2.1875 L 35.90625 2.1875 C 40.9375 2.1875 45.09375 1.421875 48.390625 -0.328125 C 51.671875 -1.96875 54.296875 -4.046875 56.265625 -6.671875 C 57.46875 -8.203125 58.5625 -10.625 59.4375 -13.796875 C 60.3125 -16.96875 60.96875 -20.578125 61.40625 -24.515625 C 61.84375 -28.46875 62.0625 -32.734375 62.0625 -37.109375 C 62.0625 -41.484375 61.953125 -45.765625 61.515625 -49.8125 C 61.078125 -53.75 60.53125 -57.359375 59.65625 -60.640625 C 58.78125 -63.9375 57.6875 -66.34375 56.375 -68.09375 C 54.84375 -69.953125 53.3125 -71.484375 51.5625 -72.578125 C 49.8125 -73.671875 47.953125 -74.546875 45.984375 -75.203125 C 44 -75.859375 42.03125 -76.296875 39.84375 -76.515625 C 37.65625 -76.734375 35.46875 -76.84375 33.28125 -76.84375 Z M 31.421875 -51.015625 C 31.75 -51.015625 32.078125 -51.125 32.296875 -51.125 L 33.171875 -51.125 C 35.140625 -51.125 36.5625 -50.578125 37.65625 -49.703125 C 38.640625 -48.828125 39.296875 -47.40625 39.734375 -45.65625 C 40.0625 -43.890625 40.171875 -41.59375 40.171875 -38.96875 C 40.171875 -36.34375 40.0625 -33.171875 39.84375 -29.671875 C 39.734375 -27.8125 39.625 -26.046875 39.625 -24.40625 C 39.515625 -22.765625 39.1875 -21.34375 38.75 -20.03125 C 38.3125 -18.71875 37.4375 -17.734375 36.34375 -16.96875 C 35.140625 -16.203125 33.390625 -15.765625 31.203125 -15.65625 L 29.890625 -15.65625 C 28.6875 -15.65625 27.25 -15.65625 25.609375 -15.765625 C 23.96875 -15.765625 22.875 -15.875 22.4375 -16.09375 L 22.4375 -50.25 C 22.65625 -50.359375 23.203125 -50.46875 24.078125 -50.578125 C 24.84375 -50.578125 25.71875 -50.6875 26.703125 -50.6875 C 27.59375 -50.6875 28.578125 -50.796875 29.453125 -50.90625 C 30.328125 -50.90625 30.984375 -51.015625 31.421875 -51.015625 Z M 31.421875 -51.015625 "/></g></g></g><g fill="#5271ff" fill-opacity="1"><g transform="translate(941.11199, 210.931975)"><g><path d="M 2.1875 0 L 53.203125 0 L 53.203125 -18.171875 L 21.890625 -15.984375 L 21.890625 -25.5 L 46.75 -26.59375 L 46.75 -46.859375 L 22 -44.65625 L 22 -54.078125 L 53.203125 -55.171875 L 53.203125 -76.625 L 2.1875 -75.53125 Z M 2.1875 0 "/></g></g></g><g fill="#5271ff" fill-opacity="1"><g transform="translate(996.50066, 210.931975)"><g><path d="M 40.828125 0 L 62.71875 0 C 62.71875 -5.90625 62.5 -10.953125 62.28125 -15.328125 C 61.953125 -19.703125 61.1875 -23.3125 60.09375 -26.15625 C 59 -29.015625 57.25 -31.203125 55.0625 -32.734375 C 52.765625 -34.15625 49.59375 -35.03125 45.53125 -35.25 C 48.171875 -35.46875 50.359375 -36.015625 52.328125 -37 C 54.296875 -37.984375 55.828125 -39.296875 57.140625 -40.9375 C 58.34375 -42.46875 59.21875 -44.328125 59.875 -46.421875 C 60.421875 -48.5 60.75 -50.6875 60.75 -53.09375 L 60.640625 -57.140625 C 60.3125 -60.640625 59.546875 -63.703125 58.453125 -66.234375 C 57.25 -68.640625 55.609375 -70.71875 53.640625 -72.25 C 51.671875 -73.78125 49.265625 -74.875 46.53125 -75.53125 C 43.78125 -76.1875 40.71875 -76.625 37.4375 -76.625 L 2.1875 -75.53125 L 2.1875 0 L 23.53125 0 L 23.53125 -23.75 C 26.921875 -24.625 29.671875 -25.0625 31.859375 -25.0625 C 35.25 -25.0625 37.546875 -23.859375 38.859375 -21.5625 C 40.171875 -19.15625 40.828125 -15.328125 40.828125 -9.859375 Z M 22.546875 -57.6875 L 32.625 -58.34375 C 34.046875 -58.34375 35.25 -57.90625 36.125 -57.03125 C 37 -56.15625 37.4375 -54.84375 37.546875 -52.984375 L 37.546875 -45.09375 C 37.546875 -43.671875 37.21875 -42.578125 36.671875 -41.703125 C 36.125 -40.828125 35.46875 -40.28125 34.8125 -39.84375 C 34.046875 -39.40625 33.28125 -39.1875 32.625 -39.078125 C 31.859375 -38.96875 31.3125 -38.96875 30.984375 -38.96875 L 22.546875 -38.96875 Z M 22.546875 -57.6875 "/></g></g></g><g fill="#ffd200" fill-opacity="1"><g transform="translate(411.959771, 205.126134)"><g><path d="M 2.40625 -75.421875 L 2.296875 0 L 33.0625 2.078125 C 33.5 2.1875 34.046875 2.1875 34.484375 2.1875 L 35.90625 2.1875 C 40.9375 2.1875 45.09375 1.421875 48.390625 -0.328125 C 51.671875 -1.96875 54.296875 -4.046875 56.265625 -6.671875 C 57.46875 -8.203125 58.5625 -10.625 59.4375 -13.796875 C 60.3125 -16.96875 60.96875 -20.578125 61.40625 -24.515625 C 61.84375 -28.46875 62.0625 -32.734375 62.0625 -37.109375 C 62.0625 -41.484375 61.953125 -45.765625 61.515625 -49.8125 C 61.078125 -53.75 60.53125 -57.359375 59.65625 -60.640625 C 58.78125 -63.9375 57.6875 -66.34375 56.375 -68.09375 C 54.84375 -69.953125 53.3125 -71.484375 51.5625 -72.578125 C 49.8125 -73.671875 47.953125 -74.546875 45.984375 -75.203125 C 44 -75.859375 42.03125 -76.296875 39.84375 -76.515625 C 37.65625 -76.734375 35.46875 -76.84375 33.28125 -76.84375 Z M 31.421875 -51.015625 C 31.75 -51.015625 32.078125 -51.125 32.296875 -51.125 L 33.171875 -51.125 C 35.140625 -51.125 36.5625 -50.578125 37.65625 -49.703125 C 38.640625 -48.828125 39.296875 -47.40625 39.734375 -45.65625 C 40.0625 -43.890625 40.171875 -41.59375 40.171875 -38.96875 C 40.171875 -36.34375 40.0625 -33.171875 39.84375 -29.671875 C 39.734375 -27.8125 39.625 -26.046875 39.625 -24.40625 C 39.515625 -22.765625 39.1875 -21.34375 38.75 -20.03125 C 38.3125 -18.71875 37.4375 -17.734375 36.34375 -16.96875 C 35.140625 -16.203125 33.390625 -15.765625 31.203125 -15.65625 L 29.890625 -15.65625 C 28.6875 -15.65625 27.25 -15.65625 25.609375 -15.765625 C 23.96875 -15.765625 22.875 -15.875 22.4375 -16.09375 L 22.4375 -50.25 C 22.65625 -50.359375 23.203125 -50.46875 24.078125 -50.578125 C 24.84375 -50.578125 25.71875 -50.6875 26.703125 -50.6875 C 27.59375 -50.6875 28.578125 -50.796875 29.453125 -50.90625 C 30.328125 -50.90625 30.984375 -51.015625 31.421875 -51.015625 Z M 31.421875 -51.015625 "/></g></g></g><g fill="#ffd200" fill-opacity="1"><g transform="translate(476.871796, 205.126134)"><g><path d="M 2.1875 -46.421875 L 2.515625 -28.578125 C 2.734375 -24.734375 3.0625 -20.90625 3.71875 -17.1875 C 4.265625 -13.46875 5.578125 -10.078125 7.546875 -7.109375 C 9.53125 -4.15625 12.375 -1.75 16.203125 0 C 20.03125 1.859375 25.390625 2.734375 32.1875 2.734375 C 39.40625 2.734375 45.09375 1.859375 49.265625 0 C 53.421875 -1.75 56.484375 -4.15625 58.453125 -7.109375 C 60.421875 -10.078125 61.734375 -13.46875 62.171875 -17.1875 C 62.609375 -20.90625 62.9375 -24.734375 62.9375 -28.6875 L 62.609375 -46.640625 C 62.609375 -50.359375 62.28125 -54.078125 61.84375 -57.796875 C 61.296875 -61.515625 60.09375 -64.8125 58.234375 -67.765625 C 56.375 -70.71875 53.640625 -73.125 50.03125 -74.984375 C 46.421875 -76.84375 41.484375 -77.828125 35.359375 -77.828125 L 32.953125 -77.828125 C 25.609375 -77.5 19.921875 -76.40625 15.875 -74.65625 C 11.71875 -72.796875 8.640625 -70.390625 6.671875 -67.546875 C 4.59375 -64.703125 3.28125 -61.40625 2.84375 -57.796875 C 2.40625 -54.078125 2.1875 -50.359375 2.1875 -46.421875 Z M 32.515625 -50.03125 C 32.84375 -50.03125 33.171875 -50.140625 33.609375 -50.140625 L 34.703125 -50.140625 C 36.5625 -50.140625 37.984375 -49.703125 38.859375 -48.9375 C 39.734375 -48.171875 40.390625 -46.96875 40.828125 -45.203125 C 41.15625 -43.453125 41.265625 -41.15625 41.265625 -38.421875 C 41.15625 -35.578125 41.046875 -32.1875 40.9375 -28.25 C 40.828125 -25.609375 40.71875 -23.203125 40.71875 -21.234375 C 40.609375 -19.265625 40.28125 -17.515625 39.84375 -16.203125 C 39.40625 -14.890625 38.53125 -13.796875 37.4375 -13.140625 C 36.234375 -12.484375 34.484375 -12.046875 32.296875 -11.9375 L 31.3125 -11.9375 C 29.34375 -11.9375 27.8125 -12.265625 26.8125 -13.03125 C 25.71875 -13.6875 24.953125 -14.78125 24.515625 -16.203125 C 23.96875 -17.625 23.640625 -19.375 23.640625 -21.34375 C 23.53125 -23.3125 23.53125 -25.609375 23.53125 -28.25 C 23.53125 -32.40625 23.421875 -35.796875 23.421875 -38.53125 C 23.3125 -41.265625 23.53125 -43.453125 23.96875 -45.09375 C 24.40625 -46.75 25.28125 -47.953125 26.59375 -48.609375 C 27.921875 -49.265625 29.890625 -49.8125 32.515625 -50.03125 Z M 32.515625 -50.03125 "/></g></g></g><g fill="#ffd200" fill-opacity="1"><g transform="translate(542.002742, 205.126134)"><g><path d="M 15.109375 0.875 L 37.546875 0.875 L 44.21875 -31.640625 L 51.234375 0.875 L 73.671875 0.875 L 88.5625 -76.625 L 65.796875 -75.421875 L 62.28125 -22 L 54.953125 -76.625 L 53.53125 -76.515625 L 53.53125 -76.625 L 34.046875 -74.765625 L 27.25 -22 L 22.109375 -76.625 L -1.09375 -74.765625 Z M 15.109375 0.875 "/></g></g></g><g fill="#ffd200" fill-opacity="1"><g transform="translate(626.289847, 205.126134)"><g><path d="M 2.515625 0 L 24.953125 0 L 24.953125 -34.59375 L 36.78125 0 L 56.375 0 L 58.671875 -76.625 L 36.453125 -75.53125 L 36.453125 -36.671875 L 24.953125 -76.625 L 3.5 -75.53125 Z M 2.515625 0 "/></g></g></g><g fill="#ffd200" fill-opacity="1"><g transform="translate(687.699042, 205.126134)"><g><path d="M 1.09375 0 L 48.828125 0 L 48.828125 -18.171875 L 22 -15.984375 L 25.28125 -76.625 L 1.09375 -75.53125 Z M 1.09375 0 "/></g></g></g><g fill="#ffd200" fill-opacity="1"><g transform="translate(737.614523, 205.126134)"><g><path d="M 2.1875 -46.421875 L 2.515625 -28.578125 C 2.734375 -24.734375 3.0625 -20.90625 3.71875 -17.1875 C 4.265625 -13.46875 5.578125 -10.078125 7.546875 -7.109375 C 9.53125 -4.15625 12.375 -1.75 16.203125 0 C 20.03125 1.859375 25.390625 2.734375 32.1875 2.734375 C 39.40625 2.734375 45.09375 1.859375 49.265625 0 C 53.421875 -1.75 56.484375 -4.15625 58.453125 -7.109375 C 60.421875 -10.078125 61.734375 -13.46875 62.171875 -17.1875 C 62.609375 -20.90625 62.9375 -24.734375 62.9375 -28.6875 L 62.609375 -46.640625 C 62.609375 -50.359375 62.28125 -54.078125 61.84375 -57.796875 C 61.296875 -61.515625 60.09375 -64.8125 58.234375 -67.765625 C 56.375 -70.71875 53.640625 -73.125 50.03125 -74.984375 C 46.421875 -76.84375 41.484375 -77.828125 35.359375 -77.828125 L 32.953125 -77.828125 C 25.609375 -77.5 19.921875 -76.40625 15.875 -74.65625 C 11.71875 -72.796875 8.640625 -70.390625 6.671875 -67.546875 C 4.59375 -64.703125 3.28125 -61.40625 2.84375 -57.796875 C 2.40625 -54.078125 2.1875 -50.359375 2.1875 -46.421875 Z M 32.515625 -50.03125 C 32.84375 -50.03125 33.171875 -50.140625 33.609375 -50.140625 L 34.703125 -50.140625 C 36.5625 -50.140625 37.984375 -49.703125 38.859375 -48.9375 C 39.734375 -48.171875 40.390625 -46.96875 40.828125 -45.203125 C 41.15625 -43.453125 41.265625 -41.15625 41.265625 -38.421875 C 41.15625 -35.578125 41.046875 -32.1875 40.9375 -28.25 C 40.828125 -25.609375 40.71875 -23.203125 40.71875 -21.234375 C 40.609375 -19.265625 40.28125 -17.515625 39.84375 -16.203125 C 39.40625 -14.890625 38.53125 -13.796875 37.4375 -13.140625 C 36.234375 -12.484375 34.484375 -12.046875 32.296875 -11.9375 L 31.3125 -11.9375 C 29.34375 -11.9375 27.8125 -12.265625 26.8125 -13.03125 C 25.71875 -13.6875 24.953125 -14.78125 24.515625 -16.203125 C 23.96875 -17.625 23.640625 -19.375 23.640625 -21.34375 C 23.53125 -23.3125 23.53125 -25.609375 23.53125 -28.25 C 23.53125 -32.40625 23.421875 -35.796875 23.421875 -38.53125 C 23.3125 -41.265625 23.53125 -43.453125 23.96875 -45.09375 C 24.40625 -46.75 25.28125 -47.953125 26.59375 -48.609375 C 27.921875 -49.265625 29.890625 -49.8125 32.515625 -50.03125 Z M 32.515625 -50.03125 "/></g></g></g><g fill="#ffd200" fill-opacity="1"><g transform="translate(802.745492, 205.126134)"><g><path d="M 1.09375 0 L 23.53125 0 L 26.15625 -14.5625 L 41.484375 -14.5625 L 44.109375 0 L 66.5625 0 L 49.046875 -76.625 L 18.609375 -75.53125 Z M 39.953125 -25.390625 L 27.703125 -25.390625 L 31.09375 -46.96875 L 36.5625 -46.96875 Z M 39.953125 -25.390625 "/></g></g></g><g fill="#ffd200" fill-opacity="1"><g transform="translate(870.394111, 205.126134)"><g><path d="M 2.40625 -75.421875 L 2.296875 0 L 33.0625 2.078125 C 33.5 2.1875 34.046875 2.1875 34.484375 2.1875 L 35.90625 2.1875 C 40.9375 2.1875 45.09375 1.421875 48.390625 -0.328125 C 51.671875 -1.96875 54.296875 -4.046875 56.265625 -6.671875 C 57.46875 -8.203125 58.5625 -10.625 59.4375 -13.796875 C 60.3125 -16.96875 60.96875 -20.578125 61.40625 -24.515625 C 61.84375 -28.46875 62.0625 -32.734375 62.0625 -37.109375 C 62.0625 -41.484375 61.953125 -45.765625 61.515625 -49.8125 C 61.078125 -53.75 60.53125 -57.359375 59.65625 -60.640625 C 58.78125 -63.9375 57.6875 -66.34375 56.375 -68.09375 C 54.84375 -69.953125 53.3125 -71.484375 51.5625 -72.578125 C 49.8125 -73.671875 47.953125 -74.546875 45.984375 -75.203125 C 44 -75.859375 42.03125 -76.296875 39.84375 -76.515625 C 37.65625 -76.734375 35.46875 -76.84375 33.28125 -76.84375 Z M 31.421875 -51.015625 C 31.75 -51.015625 32.078125 -51.125 32.296875 -51.125 L 33.171875 -51.125 C 35.140625 -51.125 36.5625 -50.578125 37.65625 -49.703125 C 38.640625 -48.828125 39.296875 -47.40625 39.734375 -45.65625 C 40.0625 -43.890625 40.171875 -41.59375 40.171875 -38.96875 C 40.171875 -36.34375 40.0625 -33.171875 39.84375 -29.671875 C 39.734375 -27.8125 39.625 -26.046875 39.625 -24.40625 C 39.515625 -22.765625 39.1875 -21.34375 38.75 -20.03125 C 38.3125 -18.71875 37.4375 -17.734375 36.34375 -16.96875 C 35.140625 -16.203125 33.390625 -15.765625 31.203125 -15.65625 L 29.890625 -15.65625 C 28.6875 -15.65625 27.25 -15.65625 25.609375 -15.765625 C 23.96875 -15.765625 22.875 -15.875 22.4375 -16.09375 L 22.4375 -50.25 C 22.65625 -50.359375 23.203125 -50.46875 24.078125 -50.578125 C 24.84375 -50.578125 25.71875 -50.6875 26.703125 -50.6875 C 27.59375 -50.6875 28.578125 -50.796875 29.453125 -50.90625 C 30.328125 -50.90625 30.984375 -51.015625 31.421875 -51.015625 Z M 31.421875 -51.015625 "/></g></g></g><g fill="#ffd200" fill-opacity="1"><g transform="translate(935.306135, 205.126134)"><g><path d="M 2.1875 0 L 53.203125 0 L 53.203125 -18.171875 L 21.890625 -15.984375 L 21.890625 -25.5 L 46.75 -26.59375 L 46.75 -46.859375 L 22 -44.65625 L 22 -54.078125 L 53.203125 -55.171875 L 53.203125 -76.625 L 2.1875 -75.53125 Z M 2.1875 0 "/></g></g></g><g fill="#ffd200" fill-opacity="1"><g transform="translate(990.694805, 205.126134)"><g><path d="M 40.828125 0 L 62.71875 0 C 62.71875 -5.90625 62.5 -10.953125 62.28125 -15.328125 C 61.953125 -19.703125 61.1875 -23.3125 60.09375 -26.15625 C 59 -29.015625 57.25 -31.203125 55.0625 -32.734375 C 52.765625 -34.15625 49.59375 -35.03125 45.53125 -35.25 C 48.171875 -35.46875 50.359375 -36.015625 52.328125 -37 C 54.296875 -37.984375 55.828125 -39.296875 57.140625 -40.9375 C 58.34375 -42.46875 59.21875 -44.328125 59.875 -46.421875 C 60.421875 -48.5 60.75 -50.6875 60.75 -53.09375 L 60.640625 -57.140625 C 60.3125 -60.640625 59.546875 -63.703125 58.453125 -66.234375 C 57.25 -68.640625 55.609375 -70.71875 53.640625 -72.25 C 51.671875 -73.78125 49.265625 -74.875 46.53125 -75.53125 C 43.78125 -76.1875 40.71875 -76.625 37.4375 -76.625 L 2.1875 -75.53125 L 2.1875 0 L 23.53125 0 L 23.53125 -23.75 C 26.921875 -24.625 29.671875 -25.0625 31.859375 -25.0625 C 35.25 -25.0625 37.546875 -23.859375 38.859375 -21.5625 C 40.171875 -19.15625 40.828125 -15.328125 40.828125 -9.859375 Z M 22.546875 -57.6875 L 32.625 -58.34375 C 34.046875 -58.34375 35.25 -57.90625 36.125 -57.03125 C 37 -56.15625 37.4375 -54.84375 37.546875 -52.984375 L 37.546875 -45.09375 C 37.546875 -43.671875 37.21875 -42.578125 36.671875 -41.703125 C 36.125 -40.828125 35.46875 -40.28125 34.8125 -39.84375 C 34.046875 -39.40625 33.28125 -39.1875 32.625 -39.078125 C 31.859375 -38.96875 31.3125 -38.96875 30.984375 -38.96875 L 22.546875 -38.96875 Z M 22.546875 -57.6875 "/></g></g></g></svg>